<svg width="31" height="27" viewBox="0 0 31 27" fill="none" xmlns="http://www.w3.org/2000/svg">
<path d="M28.5408 2.6423C26.936 0.93842 24.7341 0 22.3401 0C20.5507 0 18.9119 0.553837 17.4692 1.646C16.7412 2.19729 16.0816 2.87175 15.5 3.65898C14.9187 2.87199 14.2588 2.19729 13.5306 1.646C12.0881 0.553837 10.4493 0 8.65986 0C6.26589 0 4.06374 0.93842 2.45901 2.6423C0.873436 4.32627 0 6.62682 0 9.12048C0 11.6871 0.977028 14.0365 3.07465 16.5144C4.95113 18.7309 7.64806 20.981 10.7712 23.5864C11.8376 24.4762 13.0464 25.4848 14.3016 26.5592C14.6332 26.8435 15.0587 27 15.5 27C15.9411 27 16.3668 26.8435 16.6979 26.5596C17.9531 25.4851 19.1626 24.476 20.2295 23.5858C23.3522 20.9807 26.0491 18.7309 27.9256 16.5142C30.0232 14.0365 31 11.6871 31 9.12024C31 6.62682 30.1266 4.32627 28.5408 2.6423Z" fill="#C2C1C1"/>
</svg>
