<svg width="31" height="30" viewBox="0 0 31 30" fill="none" xmlns="http://www.w3.org/2000/svg">
<path d="M15.2185 0C6.90941 0 0.173584 6.71572 0.173584 15C0.173584 23.2843 6.90941 30 15.2185 30C23.5276 30 30.2634 23.2843 30.2634 15C30.2634 6.71572 23.5276 0 15.2185 0ZM21.7662 21.7691C21.5749 22.0954 21.2307 22.2774 20.877 22.2775C20.7007 22.2775 20.5221 22.2322 20.3589 22.1372C17.6553 20.5619 14.532 20.3087 12.3874 20.3737C10.0118 20.4458 8.26969 20.9133 8.25238 20.9181C7.70476 21.0672 7.13885 20.746 6.98863 20.2C6.83848 19.6542 7.15961 19.0903 7.70694 18.94C7.78547 18.9185 9.66015 18.4108 12.2671 18.3251C13.8026 18.2746 15.2809 18.3813 16.6603 18.6421C18.4073 18.9726 20.001 19.5526 21.3971 20.366C21.8877 20.6518 22.0529 21.2801 21.7662 21.7691ZM23.6789 17.8085C23.4524 18.1951 23.0446 18.4106 22.6256 18.4106C22.4168 18.4106 22.2052 18.3571 22.0119 18.2445C18.8095 16.3785 15.1097 16.0787 12.5695 16.1557C9.75549 16.241 7.69189 16.7949 7.67141 16.8005C7.0229 16.9769 6.35243 16.5966 6.17449 15.95C5.99662 15.3033 6.37706 14.6355 7.02536 14.4574C7.11838 14.4319 9.33896 13.8305 12.4269 13.7289C14.246 13.6692 15.997 13.7955 17.6308 14.1045C19.7002 14.496 21.588 15.183 23.2416 16.1465C23.8228 16.485 24.0186 17.2292 23.6789 17.8085ZM24.8547 14.2073C24.5985 14.2073 24.339 14.1416 24.1019 14.0034C16.4884 9.56726 6.61221 12.2046 6.51335 12.2318C5.71736 12.4505 4.89449 11.9844 4.67525 11.1908C4.45594 10.3973 4.92341 9.57681 5.71933 9.35822C5.83338 9.32686 8.55718 8.58923 12.3449 8.46471C14.5762 8.39147 16.7239 8.54636 18.728 8.92539C21.2664 9.4055 23.582 10.2481 25.6103 11.43C26.3231 11.8453 26.5632 12.7581 26.1467 13.4687C25.8688 13.9429 25.3686 14.2073 24.8547 14.2073Z" fill="#00D95F"/>
</svg>
