<svg width="46" height="27" viewBox="0 0 46 27" fill="none" xmlns="http://www.w3.org/2000/svg">
<path d="M23 0C31.7888 0 39.7589 4.73473 45.6401 12.4252C46.12 13.0553 46.12 13.9355 45.6401 14.5655C39.7589 22.2653 31.7888 27 23 27C14.2112 27 6.24108 22.2653 0.359924 14.5748C-0.119976 13.9447 -0.119976 13.0645 0.359924 12.4345C6.24108 4.73473 14.2112 0 23 0ZM22.3695 23.0065C28.2036 23.3679 33.0215 18.6332 32.6545 12.8792C32.3534 8.13521 28.4483 4.28998 23.6305 3.99348C17.7964 3.63212 12.9785 8.36685 13.3455 14.1208C13.656 18.8555 17.5611 22.7008 22.3695 23.0065ZM22.6612 18.6146C25.8041 18.8092 28.4012 16.2612 28.1942 13.1664C28.0343 10.6091 25.9265 8.5429 23.3293 8.37612C20.1865 8.18154 17.5893 10.7296 17.7964 13.8243C17.9657 16.3909 20.0735 18.4571 22.6612 18.6146Z" fill="#C2C0C0"/>
</svg>
